HIERARCHY
ROOT Hips
{
	OFFSET -3.958830 18.904000 13.208200
	CHANNELS 6 Xposition Yposition Zposition Zrotation Yrotation Xrotation 
	JOINT LHipJoint
	{
		OFFSET 0.000000 0.000000 0.000000
		CHANNELS 3 Zrotation Yrotation Xrotation
		JOINT LeftUpLeg
		{
			OFFSET 1.800000 -1.400000 0.085000
			CHANNELS 3 Zrotation Yrotation Xrotation
			JOINT LeftLeg
			{
				OFFSET 2.215000 -6.000000 0.000000
				CHANNELS 3 Zrotation Yrotation Xrotation
				JOINT LeftFoot
				{
					OFFSET 2.500000 -6.900000 0.000000
					CHANNELS 3 Zrotation Yrotation Xrotation
					JOINT LeftToeBase
					{
						OFFSET 0.200000 -0.500000 1.950000
						CHANNELS 3 Zrotation Yrotation Xrotation
						End Site
						{
							OFFSET 0.000000 0.000000 0.000000
						}
					}
				}
			}
		}
	}
	JOINT RHipJoint
	{
		OFFSET 0.000000 0.000000 0.000000
		CHANNELS 3 Zrotation Yrotation Xrotation
		JOINT RightUpLeg
		{
			OFFSET -1.800000 -1.400000 0.085000
			CHANNELS 3 Zrotation Yrotation Xrotation
			JOINT RightLeg
			{
				OFFSET -2.215000 -6.000000 0.000000
				CHANNELS 3 Zrotation Yrotation Xrotation
				JOINT RightFoot
				{
					OFFSET -2.500000 -6.900000 0.000000
					CHANNELS 3 Zrotation Yrotation Xrotation
					JOINT RightToeBase
					{
						OFFSET -0.200000 -0.500000 1.950000
						CHANNELS 3 Zrotation Yrotation Xrotation
						End Site
						{
							OFFSET 0.000000 0.000000 0.000000
						}
					}
				}
			}
		}
	}
	JOINT LowerBack
	{
		OFFSET 0.000000 0.000000 0.000000
		CHANNELS 3 Zrotation Yrotation Xrotation
		JOINT Spine
		{
			OFFSET -0.087000 1.940000 -0.288900
			CHANNELS 3 Zrotation Yrotation Xrotation
			JOINT Spine1
			{
				OFFSET 0.000000 1.950000 0.060000
				CHANNELS 3 Zrotation Yrotation Xrotation
				JOINT Neck
				{
					OFFSET 0.000000 0.000000 0.000000
					CHANNELS 3 Zrotation Yrotation Xrotation
					JOINT Neck1
					{
						OFFSET 0.000000 1.600000 0.340000
						CHANNELS 3 Zrotation Yrotation Xrotation
						JOINT Head
						{
							OFFSET 0.000000 1.667000 -0.240000
							CHANNELS 3 Zrotation Yrotation Xrotation
							End Site
							{
								OFFSET 0.000000 0.000000 0.000000
							}
						}
					}
				}
				JOINT LeftShoulder
				{
					OFFSET 0.000000 0.000000 0.000000
					CHANNELS 3 Zrotation Yrotation Xrotation
					JOINT LeftArm
					{
						OFFSET 2.700000 1.550000 -0.730000
						CHANNELS 3 Zrotation Yrotation Xrotation
						JOINT LeftForeArm
						{
							OFFSET 5.450000 0.000000 0.000000
							CHANNELS 3 Zrotation Yrotation Xrotation
							JOINT LeftHand
							{
								OFFSET 3.450000 0.000000 0.000000
								CHANNELS 3 Zrotation Yrotation Xrotation
								JOINT LeftHandIndex1
								{
									OFFSET 0.750000 0.000000 0.000000
									CHANNELS 3 Zrotation Yrotation Xrotation
									End Site
									{
										OFFSET 0.000000 0.000000 0.000000
									}
								}
							}
						}
					}
				}
				JOINT RightShoulder
				{
					OFFSET 0.000000 0.000000 0.000000
					CHANNELS 3 Zrotation Yrotation Xrotation
					JOINT RightArm
					{
						OFFSET -2.700000 1.550000 -0.730000
						CHANNELS 3 Zrotation Yrotation Xrotation
						JOINT RightForeArm
						{
							OFFSET -5.450000 0.000000 0.000000
							CHANNELS 3 Zrotation Yrotation Xrotation
							JOINT RightHand
							{
								OFFSET -3.450000 0.000000 0.000000
								CHANNELS 3 Zrotation Yrotation Xrotation
								JOINT RightHandIndex1
								{
									OFFSET -0.750000 0.000000 0.000000
									CHANNELS 3 Zrotation Yrotation Xrotation
									End Site
									{
										OFFSET 0.000000 0.000000 0.000000
									}
								}
							}
						}
					}
				}
			}
		}
	}
}
MOTION
Frames: 14
Frame Time: 0.016667
0.918690 16.279280 -1.915590 2.649394 -12.279756 14.169694 -15.351285 10.935073 4.856830 -1.130702 -11.902198 -37.300914 -20.123693 14.129148 37.792804 0.358016 8.527262 1.589808 0.294700 0.022200 0.297130 18.590565 -7.667218 4.986274 -5.398988 10.044448 -57.114566 6.714865 -4.596877 20.896023 0.032230 -2.283786 3.470992 0.036950 0.260430 0.238770 -3.906801 -2.600388 -9.225403 15.418519 -8.056962 27.990571 -5.921511 -3.177048 -2.556842 2.931889 -6.547699 -5.701999 -12.748512 8.142130 31.267114 -10.818790 8.282310 -9.324270 -29.388801 -3.846942 -0.681016 -39.875433 -0.740714 -6.529028 -2.283174 -17.834115 -1.373054 -3.929558 2.949449 0.410880 0.206340 -0.088290 0.089410 22.843562 7.810932 1.789943 40.289327 5.952012 -7.689702 21.328805 23.851295 1.766365 2.215356 -1.375247 -0.189520 0.155640 0.084690 -0.218880 
0.941720 16.234990 -1.911260 2.571593 -11.677732 13.565612 -15.333903 10.847685 4.871288 -1.264126 -12.124425 -37.584369 -19.812035 14.593628 39.526605 0.421408 8.830236 1.488882 0.290010 0.020130 0.285670 18.631464 -7.592166 5.066572 -6.180907 10.250645 -58.118673 6.419712 -5.099439 23.909654 -0.027930 -2.643615 3.341966 0.031710 0.250980 0.214280 -3.994531 -2.553509 -9.248049 16.815621 -8.801052 28.806906 -6.643022 -3.343792 -3.233473 2.998358 -7.396948 -5.820186 -14.425651 8.638074 31.423460 -10.253340 7.719700 -10.217040 -29.673203 -3.601062 -0.813553 -40.135779 -0.631960 -6.073762 0.030685 -15.563086 -1.524845 -3.920439 2.892643 0.438870 0.172280 -0.077490 0.085390 22.850102 8.087614 1.923100 41.092985 6.073617 -8.027011 19.272605 24.905724 1.660505 2.213448 -1.323971 -0.197400 0.184220 0.094270 -0.215320 
0.965400 16.148360 -1.903580 2.449310 -10.305628 11.501151 -15.349612 10.718093 4.810668 -1.178499 -12.247661 -37.492092 -18.987483 15.877834 43.611953 0.576360 9.604857 1.228082 0.335690 0.054300 0.344980 18.673505 -7.318745 5.349214 -8.569972 11.044283 -60.798425 5.953897 -6.830737 33.501780 -0.294200 -4.104902 2.801228 0.040850 0.177380 0.198830 -4.027842 -2.659476 -9.377435 18.455084 -9.852930 31.116734 -7.095367 -3.538790 -4.230925 3.313582 -8.173075 -5.786395 -16.095621 8.541743 32.383621 -11.077190 6.839360 -12.629110 -31.322442 -3.497091 -1.038806 -39.186552 -0.149221 -5.014160 3.215700 -10.359557 -1.459313 -3.889368 2.823223 0.508580 0.097940 -0.018840 0.078270 23.701974 8.599134 1.899339 40.886950 6.627488 -8.465354 16.640396 27.270454 1.677004 2.202908 -1.275409 -0.192300 0.201250 0.069870 -0.235270 
0.984170 16.070580 -1.884870 2.436108 -7.892709 7.880138 -15.357892 10.688869 4.634845 -1.871827 -12.251014 -35.917101 -16.533356 16.937914 49.269656 0.793254 10.463472 0.950855 0.384000 0.112160 0.376950 18.714933 -7.106391 5.562385 -12.322277 11.214461 -62.446793 6.292983 -9.847191 45.410508 -0.731610 -6.399175 2.021384 0.048900 0.096460 0.164640 -4.052481 -2.847665 -9.498609 20.383607 -11.417170 33.711919 -7.578056 -4.281162 -4.135090 3.666781 -9.027263 -6.511884 -18.697850 8.614514 35.103221 -11.042900 5.041500 -14.626140 -31.548312 -4.394645 -0.501979 -38.166957 0.532132 -3.790616 4.339888 -4.548276 -1.070839 -3.827450 2.753827 0.573760 0.004010 0.048310 0.082000 23.223187 10.075892 2.445720 41.433062 6.975039 -9.727806 14.764604 32.496408 1.961233 2.174176 -1.242769 -0.170070 0.227380 0.038490 -0.232110 
0.999810 16.010660 -1.821050 1.678665 -5.066537 2.993064 -15.317632 10.931178 4.302651 -1.657302 -11.146352 -32.006312 -14.482223 17.966794 53.707444 1.035890 11.190969 0.718204 0.414800 0.139950 0.389560 18.735532 -7.193833 5.528160 -14.999353 11.266949 -60.510493 6.597296 -13.445978 56.747651 -1.254445 -8.736804 1.274750 0.025270 0.003720 0.142790 -4.092264 -3.011530 -9.466984 23.567493 -13.413125 35.677167 -8.611646 -5.255801 -3.003132 4.429106 -9.782277 -8.221077 -22.001156 9.203414 39.301206 -10.389900 2.869330 -15.018220 -31.192138 -6.358040 1.007610 -37.276544 3.097791 -3.727456 5.898304 -2.611227 -0.815908 -3.700055 2.769261 0.625250 -0.103560 0.113290 0.078380 21.506011 12.595559 3.977995 42.776479 5.782379 -12.526382 13.810435 41.281427 2.437237 2.134334 -1.278205 -0.122680 0.210100 0.013460 -0.216600 
1.001680 15.931590 -1.717210 1.050143 -3.174742 -1.066808 -15.249537 11.042477 3.938573 -1.338352 -9.681010 -28.660249 -12.364940 19.008883 57.651201 1.222815 11.941704 0.519364 0.370250 0.063670 0.349070 18.799018 -7.303878 5.541340 -17.036461 12.101825 -58.736736 5.967035 -17.215877 68.737281 -1.818237 -11.167278 0.605755 -0.013480 0.025040 0.117610 -4.254640 -2.863223 -9.403311 26.916064 -14.304671 34.845993 -9.974734 -5.944869 -1.584009 4.749687 -10.201842 -9.183703 -24.267729 9.913297 42.640088 -10.021720 1.018800 -12.552920 -30.475398 -6.636926 1.992480 -35.624524 5.820958 -3.984713 7.571505 -3.806744 -0.814516 -3.665179 2.750008 0.638640 -0.112390 0.083220 0.072080 20.209152 13.087455 4.797868 44.418636 5.190515 -14.348745 14.209250 50.053626 3.247526 2.066944 -1.328679 -0.145870 0.231510 0.046670 -0.213440 
1.008120 15.856710 -1.615810 0.659825 -0.165702 -4.768729 -15.174629 11.171711 3.660407 -1.695264 -8.711819 -25.576627 -9.268028 18.983659 61.677637 1.387816 12.454404 0.409355 0.320000 -0.002100 0.328550 18.849948 -7.568070 5.396570 -18.481816 12.104192 -55.764738 4.299094 -20.556556 79.295785 -2.323951 -13.151994 0.118192 -0.053370 0.042470 0.089500 -4.404443 -2.628494 -9.302028 29.840642 -14.705541 33.108328 -11.422954 -6.781316 -0.442466 5.100790 -9.754484 -9.360442 -23.710721 9.247602 45.208738 -10.115380 -0.549780 -10.687750 -29.082146 -5.620710 2.172093 -33.054319 7.249356 -4.432114 8.793751 -7.817103 -1.017104 -3.627249 2.729979 0.627860 -0.110850 0.058340 0.059960 18.083505 11.584244 5.250797 47.408857 4.899102 -15.251719 17.570702 60.137583 5.538211 2.043381 -1.417309 -0.163080 0.249730 0.063150 -0.208660 
0.994470 15.759450 -1.495210 1.133005 1.982891 -7.501262 -15.114259 11.250751 3.484799 -2.807795 -7.898925 -23.150899 -6.312414 18.898527 65.748736 1.559069 13.020123 0.274279 0.239450 -0.123110 0.287560 18.883798 -7.824581 5.271863 -19.456228 12.335518 -52.884669 1.953772 -22.730021 88.427906 -2.698542 -14.652988 -0.222091 -0.118780 0.075730 0.116880 -4.527647 -2.350287 -9.270121 30.014086 -13.366444 30.652231 -11.680358 -7.138381 0.835004 5.034368 -8.360447 -9.459074 -20.494822 7.881992 47.669850 -11.003760 -0.859980 -6.984300 -25.897139 -3.976896 2.319400 -31.393111 8.588926 -5.094619 9.369428 -13.532771 -1.310646 -3.648252 2.765786 0.598820 -0.056450 0.008120 0.031590 15.083803 9.085831 5.517484 51.276141 5.387472 -14.370893 24.507952 68.841178 10.427388 2.043068 -1.564098 -0.173730 0.199580 0.110410 -0.221470 
0.966980 15.685020 -1.373400 1.558413 2.767045 -10.202055 -15.036103 11.417237 3.305148 -2.667796 -6.421995 -20.005926 -5.387091 19.627116 67.323196 1.697518 13.391139 0.196579 0.193660 -0.168980 0.251330 18.896466 -8.244698 5.026769 -18.612921 13.202931 -48.227340 -0.562784 -22.889609 94.722243 -2.903216 -15.402457 -0.353685 -0.144430 0.117260 0.131780 -4.664470 -1.956696 -9.147671 29.202814 -11.164786 28.444325 -10.788850 -6.829726 2.704932 4.309870 -6.735910 -9.181100 -16.859287 6.160142 49.078030 -11.352080 -1.045880 -4.280500 -23.301506 -2.750397 2.356398 -28.423817 8.840617 -5.288991 8.248956 -19.294229 -1.423382 -3.669639 2.813809 0.540820 0.008460 -0.040520 0.020260 14.065580 6.649738 5.339466 50.967383 5.853546 -11.849647 35.525074 78.137907 20.225128 2.083112 -1.702996 -0.169380 0.171920 0.134560 -0.216470 
0.924510 15.637770 -1.269200 2.095832 4.906565 -12.580903 -14.992046 11.651330 3.271790 -2.727791 -5.746200 -17.067265 -4.172677 19.598427 68.858336 1.779880 13.645360 0.174955 0.153550 -0.235550 0.264560 18.851546 -8.775538 4.577741 -17.171274 12.754142 -41.911800 -2.595273 -22.216341 97.652737 -2.955858 -15.581553 -0.369278 -0.161190 0.153730 0.126290 -4.688743 -1.693917 -9.024809 26.745723 -8.892928 25.938290 -9.070998 -6.480058 4.906686 3.833803 -4.131018 -9.240228 -11.487722 3.587966 51.224574 -12.393720 -0.637840 -0.872460 -21.094650 -2.918456 2.586612 -24.800042 8.658026 -5.453948 7.099187 -25.515612 -1.466715 -3.679867 2.846215 0.507960 0.068670 -0.084630 0.017830 13.076128 4.964347 5.486340 50.078172 6.633825 -6.944507 56.517576 87.312409 40.213943 2.430582 -1.392966 -0.207110 0.169170 0.133260 -0.238680 
0.878680 15.598200 -1.167240 3.609305 8.233027 -13.356262 -15.032303 11.827191 3.382809 -4.635098 -5.993336 -15.019040 -2.488097 18.398187 70.113576 1.778294 13.694347 0.205119 0.087340 -0.341970 0.253110 18.750841 -9.239756 4.050261 -16.927628 10.933739 -36.094882 -4.060931 -21.482364 98.159668 -2.887775 -15.531563 -0.366013 -0.182580 0.220650 0.141140 -4.544273 -1.620790 -8.925720 21.528711 -6.252310 22.274753 -6.678515 -6.139779 6.167233 3.430729 -0.987206 -8.699158 -5.258419 0.523927 51.880086 -13.562820 0.375460 3.497550 -18.183400 -2.494468 2.520127 -21.107092 7.224792 -5.118800 5.175010 -31.294711 -1.212783 -3.760286 2.929092 0.455320 0.168720 -0.167790 0.006860 11.332245 2.297896 4.141693 50.249039 7.028158 -10.613923 104.362186 80.539555 81.509101 3.452826 3.602965 -0.260640 0.139250 0.158940 -0.269140 
0.821070 15.596550 -1.058850 4.261766 9.671213 -14.113108 -15.086902 12.076900 3.413659 -4.787421 -5.512446 -12.753181 -1.650930 17.652470 69.762400 1.737987 13.557804 0.263348 0.056630 -0.373630 0.259470 18.611812 -9.782599 3.560026 -15.108471 9.799050 -29.635245 -4.312305 -20.075663 95.398614 -2.754594 -15.081885 -0.250712 -0.184500 0.257430 0.157630 -4.314899 -1.370884 -8.740520 16.905407 -3.547566 19.361070 -3.527297 -4.694696 8.203564 3.138873 1.900850 -9.023857 0.952586 -2.528103 51.779795 -14.911900 1.467690 5.105050 -16.219658 -3.276250 2.450257 -17.997562 6.287498 -5.156073 3.112748 -38.268831 -0.734793 -3.798339 3.002315 0.413050 0.243120 -0.200590 -0.001140 10.488217 1.599030 5.047369 48.335004 6.518844 -10.496072 147.540851 76.751424 131.314296 1.716691 -1.048634 -0.279190 0.134250 0.167790 -0.284990 
0.772700 15.608210 -0.966860 4.951936 10.233670 -14.084504 -15.152997 12.234625 3.516408 -4.242446 -5.522090 -11.889949 -2.395694 18.190144 69.528914 1.771302 13.734700 0.271491 -0.037730 -0.475600 0.168620 18.496339 -10.236925 3.024831 -13.320556 8.337420 -24.027263 -4.488179 -17.658214 89.715944 -2.454535 -14.231111 -0.016457 -0.209080 0.393320 0.151890 -4.078683 -1.166950 -8.436820 12.985592 -1.760669 16.348626 -1.502854 -3.717137 9.490757 2.502820 3.009097 -8.988562 3.310867 -3.469274 50.098050 -14.251670 1.691790 7.870390 -13.676041 -2.595738 1.990380 -15.365827 5.505866 -4.691921 -0.244105 -45.242705 0.472666 -3.886989 3.089803 0.343490 0.350200 -0.302840 0.012500 9.461390 0.538493 5.436975 47.150340 7.589989 -5.435075 173.749802 73.063221 161.198231 1.706222 -1.762967 -0.337910 0.169800 0.219790 -0.266810 
0.735440 15.662150 -0.890340 4.628022 10.283135 -14.259590 -15.173882 12.396468 3.517814 -2.812594 -5.389031 -10.804993 -3.400540 18.409601 67.911173 1.711432 13.622063 0.308097 -0.065490 -0.501800 0.113590 18.437581 -10.660945 2.551466 -11.278480 6.714788 -18.425809 -4.229426 -15.508341 82.500483 -2.145493 -13.190995 0.250495 -0.204200 0.460230 0.174700 -3.977623 -0.940264 -8.036221 11.340049 -0.358648 13.169823 -0.104853 -2.757393 11.218329 2.177325 3.673947 -8.931064 4.426168 -4.262274 49.806169 -13.774590 1.386020 9.276500 -11.866946 -2.253224 1.359343 -13.632767 2.928695 -4.058195 -1.389534 -49.856988 1.143528 -3.943552 3.179547 0.296770 0.412000 -0.355740 0.023220 8.464930 -0.204065 6.106481 45.688264 7.125722 -2.215618 -171.777535 67.351642 179.824568 1.739832 -2.015464 -0.347900 0.163910 0.251290 -0.251280 
